<svg width="80" height="56" viewBox="0 0 80 56" fill="none" xmlns="http://www.w3.org/2000/svg">
<path d="M16 0C16.9193 -1.36979e-08 17.8295 0.18106 18.6788 0.532843C19.5281 0.884626 20.2997 1.40024 20.9497 2.05025C21.5998 2.70026 22.1154 3.47194 22.4672 4.32122C22.8189 5.17049 23 6.08075 23 7C23 7.91925 22.8189 8.8295 22.4672 9.67878C22.1154 10.5281 21.5998 11.2997 20.9497 11.9497C20.2997 12.5998 19.5281 13.1154 18.6788 13.4672C17.8295 13.8189 16.9193 14 16 14C15.0807 14 14.1705 13.8189 13.3212 13.4672C12.4719 13.1154 11.7003 12.5998 11.0503 11.9497C10.4002 11.2997 9.88463 10.5281 9.53284 9.67878C9.18106 8.8295 9 7.91925 9 7C9 6.08075 9.18106 5.17049 9.53284 4.32122C9.88463 3.47194 10.4002 2.70026 11.0503 2.05025C11.7003 1.40024 12.4719 0.884626 13.3212 0.532843C14.1705 0.18106 15.0807 -1.36979e-08 16 0ZM6.6625 30.3875L8 32.55V26.9125L6.6625 30.3875ZM0 31L5 18H26.5375L26.525 18.0125L18.525 32.0125L17.25 34.2375L18.75 36.325L24 43.6875V44V52H8V44L0 31ZM56 43.6875L61.25 36.325L62.75 34.2375L61.475 32.0125L53.475 18.0125L53.4625 18H75L80 31L72 44V52H56V44V43.6875ZM64 0C64.9193 -1.36979e-08 65.8295 0.18106 66.6788 0.532843C67.5281 0.884626 68.2997 1.40024 68.9497 2.05025C69.5998 2.70026 70.1154 3.47194 70.4672 4.32122C70.8189 5.17049 71 6.08075 71 7C71 7.91925 70.8189 8.8295 70.4672 9.67878C70.1154 10.5281 69.5998 11.2997 68.9497 11.9497C68.2997 12.5998 67.5281 13.1154 66.6788 13.4672C65.8295 13.8189 64.9193 14 64 14C63.0807 14 62.1705 13.8189 61.3212 13.4672C60.4719 13.1154 59.7003 12.5998 59.0503 11.9497C58.4002 11.2997 57.8846 10.5281 57.5328 9.67878C57.1811 8.8295 57 7.91925 57 7C57 6.08075 57.1811 5.17049 57.5328 4.32122C57.8846 3.47194 58.4002 2.70026 59.0503 2.05025C59.7003 1.40024 60.4719 0.884626 61.3212 0.532843C62.1705 0.18106 63.0807 -1.36979e-08 64 0ZM73.3375 30.3875L72 26.9125V32.55L73.3375 30.3875ZM40 0C42.1217 0 44.1566 0.842855 45.6569 2.34315C47.1571 3.84344 48 5.87827 48 8C48 10.1217 47.1571 12.1566 45.6569 13.6569C44.1566 15.1571 42.1217 16 40 16C37.8783 16 35.8434 15.1571 34.3431 13.6569C32.8429 12.1566 32 10.1217 32 8C32 5.87827 32.8429 3.84344 34.3431 2.34315C35.8434 0.842855 37.8783 0 40 0ZM29.1125 33.6375L32 37.675V28.5875L29.1125 33.6375ZM48 28.5875V37.675L50.8875 33.6375L48 28.5875ZM58 34L48 48V56H32V48L22 34L30 20H50L58 34Z" fill="#1C82AD"/>
</svg>
