<svg width="57" height="57" viewBox="0 0 57 57" fill="none" xmlns="http://www.w3.org/2000/svg">
<path d="M28.0219 13.6469C20.0719 13.6469 13.6594 20.0594 13.6594 28.0094C13.6594 35.9594 20.0719 42.3719 28.0219 42.3719C35.9719 42.3719 42.3844 35.9594 42.3844 28.0094C42.3844 20.0594 35.9719 13.6469 28.0219 13.6469ZM28.0219 37.3469C22.8844 37.3469 18.6844 33.1594 18.6844 28.0094C18.6844 22.8594 22.8719 18.6719 28.0219 18.6719C33.1719 18.6719 37.3594 22.8594 37.3594 28.0094C37.3594 33.1594 33.1594 37.3469 28.0219 37.3469ZM46.3219 13.0594C46.3219 14.9219 44.8219 16.4094 42.9719 16.4094C41.1094 16.4094 39.6219 14.9094 39.6219 13.0594C39.6219 11.2094 41.1219 9.70937 42.9719 9.70937C44.8219 9.70937 46.3219 11.2094 46.3219 13.0594ZM55.8344 16.4594C55.6219 11.9719 54.5969 7.99687 51.3094 4.72187C48.0344 1.44687 44.0594 0.421875 39.5719 0.196875C34.9469 -0.065625 21.0844 -0.065625 16.4594 0.196875C11.9844 0.409375 8.00937 1.43437 4.72188 4.70937C1.43438 7.98438 0.421875 11.9594 0.196875 16.4469C-0.065625 21.0719 -0.065625 34.9344 0.196875 39.5594C0.409375 44.0469 1.43438 48.0219 4.72188 51.2969C8.00937 54.5719 11.9719 55.5969 16.4594 55.8219C21.0844 56.0844 34.9469 56.0844 39.5719 55.8219C44.0594 55.6094 48.0344 54.5844 51.3094 51.2969C54.5844 48.0219 55.6094 44.0469 55.8344 39.5594C56.0969 34.9344 56.0969 21.0844 55.8344 16.4594ZM49.8594 44.5219C48.8844 46.9719 46.9969 48.8594 44.5344 49.8469C40.8469 51.3094 32.0969 50.9719 28.0219 50.9719C23.9469 50.9719 15.1844 51.2969 11.5094 49.8469C9.05937 48.8719 7.17188 46.9844 6.18438 44.5219C4.72188 40.8344 5.05938 32.0844 5.05938 28.0094C5.05938 23.9344 4.73438 15.1719 6.18438 11.4969C7.15938 9.04688 9.04688 7.15937 11.5094 6.17187C15.1969 4.70937 23.9469 5.04687 28.0219 5.04687C32.0969 5.04687 40.8594 4.72187 44.5344 6.17187C46.9844 7.14687 48.8719 9.03437 49.8594 11.4969C51.3219 15.1844 50.9844 23.9344 50.9844 28.0094C50.9844 32.0844 51.3219 40.8469 49.8594 44.5219Z" fill="white"/>
</svg>
