<svg width="47" height="48" viewBox="0 0 47 48" fill="none" xmlns="http://www.w3.org/2000/svg">
<rect width="47" height="48" rx="12" fill="#1C82AD"/>
<g clip-path="url(#clip0_190_8)">
<path d="M16.4688 23.2188H32.0938C32.5249 23.2188 32.875 23.5688 32.875 24C32.875 24.4312 32.5249 24.7812 32.0938 24.7812H16.4688C16.0376 24.7812 15.6875 24.4312 15.6875 24C15.6875 23.5688 16.0376 23.2188 16.4688 23.2188Z" fill="black"/>
<path d="M16.7922 24L23.2719 30.4781C23.5774 30.7836 23.5774 31.2789 23.2719 31.5844C22.9664 31.8899 22.4711 31.8899 22.1656 31.5844L15.1344 24.5531C14.9874 24.4066 14.9049 24.2075 14.9049 24C14.9049 23.7925 14.9874 23.5934 15.1344 23.4469L22.1656 16.4156C22.4709 16.1103 22.9666 16.1103 23.2719 16.4156C23.5772 16.7209 23.5772 17.2166 23.2719 17.5219L16.7922 24Z" fill="black"/>
</g>
<defs>
<clipPath id="clip0_190_8">
<rect width="25" height="25" fill="white" transform="translate(11 11.5)"/>
</clipPath>
</defs>
</svg>
