<svg width="35" height="25" viewBox="0 0 35 25" fill="none" xmlns="http://www.w3.org/2000/svg">
<path d="M7.7625 24.8751C3.47695 24.8751 0 21.3981 0 17.1126C0 13.7273 2.16703 10.8487 5.18578 9.78674C5.18039 9.64119 5.175 9.49564 5.175 9.3501C5.175 4.58479 9.03469 0.725098 13.8 0.725098C16.9966 0.725098 19.7836 2.46088 21.2768 5.04838C22.0962 4.49854 23.088 4.1751 24.15 4.1751C27.007 4.1751 29.325 6.49307 29.325 9.3501C29.325 10.0078 29.201 10.6331 28.98 11.2153C32.1281 11.8513 34.5 14.6383 34.5 17.9751C34.5 21.7863 31.4112 24.8751 27.6 24.8751H7.7625ZM12.0211 15.8728L16.3336 20.1853C16.8403 20.692 17.6597 20.692 18.161 20.1853L22.4735 15.8728C22.9802 15.366 22.9802 14.5467 22.4735 14.0453C21.9668 13.544 21.1474 13.5386 20.6461 14.0453L18.5438 16.1477V8.91885C18.5438 8.20189 17.967 7.6251 17.25 7.6251C16.533 7.6251 15.9563 8.20189 15.9563 8.91885V16.1477L13.8539 14.0453C13.3472 13.5386 12.5278 13.5386 12.0265 14.0453C11.5252 14.5521 11.5198 15.3714 12.0265 15.8728H12.0211Z" fill="black"/>
</svg>
