<svg width="53" height="42" viewBox="0 0 53 42" fill="none" xmlns="http://www.w3.org/2000/svg">
<g clip-path="url(#clip0_183_53)">
<path d="M12.0188 38.8125C5.59043 38.8125 0.375 33.597 0.375 27.1687C0.375 22.0907 3.62555 17.7729 8.15367 16.1799C8.14559 15.9616 8.1375 15.7433 8.1375 15.525C8.1375 8.37699 13.927 2.58746 21.075 2.58746C25.87 2.58746 30.0504 5.19113 32.2902 9.07238C33.5193 8.24762 35.0071 7.76246 36.6 7.76246C40.8855 7.76246 44.3625 11.2394 44.3625 15.525C44.3625 16.5114 44.1765 17.4494 43.845 18.3227C48.5672 19.2768 52.125 23.4573 52.125 28.4625C52.125 34.1792 47.4918 38.8125 41.775 38.8125H12.0188ZM18.4066 21.266C17.6466 22.0261 17.6466 23.2551 18.4066 24.0071C19.1667 24.7591 20.3958 24.7672 21.1478 24.0071L24.3013 20.8536V31.6968C24.3013 32.7723 25.1665 33.6375 26.2419 33.6375C27.3173 33.6375 28.1825 32.7723 28.1825 31.6968V20.8536L31.3361 24.0071C32.0961 24.7672 33.3252 24.7672 34.0772 24.0071C34.8292 23.247 34.8373 22.018 34.0772 21.266L27.6084 14.7972C26.8484 14.0372 25.6193 14.0372 24.8673 14.7972L18.3986 21.266H18.4066Z" fill="black"/>
</g>
<defs>
<clipPath id="clip0_183_53">
<rect width="51.75" height="41.4" fill="white" transform="translate(0.375)"/>
</clipPath>
</defs>
</svg>
