<svg width="92" height="74" viewBox="0 0 92 74" fill="none" xmlns="http://www.w3.org/2000/svg">
<g clip-path="url(#clip0_53_39)">
<path d="M27.6 0H23V4.6V13.8C26.3494 13.8 29.4975 14.6912 32.2 16.2581V9.2H82.8V50.6H73.6V41.4H55.2V50.6H43.9012L46.6612 59.8H87.4H92V55.2V4.6V0H87.4H27.6ZM23 46C24.8122 46 26.6067 45.6431 28.281 44.9495C29.9553 44.256 31.4766 43.2395 32.7581 41.9581C34.0395 40.6766 35.056 39.1553 35.7495 37.481C36.4431 35.8067 36.8 34.0122 36.8 32.2C36.8 30.3878 36.4431 28.5933 35.7495 26.919C35.056 25.2447 34.0395 23.7234 32.7581 22.4419C31.4766 21.1605 29.9553 20.144 28.281 19.4505C26.6067 18.7569 24.8122 18.4 23 18.4C21.1878 18.4 19.3933 18.7569 17.719 19.4505C16.0447 20.144 14.5234 21.1605 13.2419 22.4419C11.9605 23.7234 10.944 25.2447 10.2505 26.919C9.55695 28.5933 9.2 30.3878 9.2 32.2C9.2 34.0122 9.55695 35.8067 10.2505 37.481C10.944 39.1553 11.9605 40.6766 13.2419 41.9581C14.5234 43.2395 16.0447 44.256 17.719 44.9495C19.3933 45.6431 21.1878 46 23 46ZM46 73.6L39.1 50.6H6.9L0 73.6H46Z" fill="#1C82AD"/>
</g>
<defs>
<clipPath id="clip0_53_39">
<rect width="92" height="73.6" fill="white"/>
</clipPath>
</defs>
</svg>
