<svg width="70" height="80" viewBox="0 0 70 80" fill="none" xmlns="http://www.w3.org/2000/svg">
<g clip-path="url(#clip0_53_30)">
<path d="M29.7562 4.95947H0V34.7157H29.7562V4.95947ZM19.8375 14.8782V24.797H9.91875V14.8782H19.8375ZM29.7562 44.6345H0V74.3907H29.7562V44.6345ZM19.8375 54.5532V64.472H9.91875V54.5532H19.8375ZM39.675 4.95947V34.7157H69.4312V4.95947H39.675ZM49.5937 14.8782H59.5125V24.797H49.5937V14.8782ZM54.5531 69.4313V74.3907H59.5125V69.4313H54.5531ZM69.4312 69.4313H64.4719V74.3907H69.4312V69.4313ZM64.4719 44.6345V49.5938H54.5531V44.6345H39.675V59.5126V74.3907H49.5937V59.5126H54.5531V64.472H69.4312V54.5532V49.5938V44.6345H64.4719Z" fill="#1C82AD"/>
</g>
<defs>
<clipPath id="clip0_53_30">
<rect width="69.4312" height="79.35" fill="white"/>
</clipPath>
</defs>
</svg>
